<svg fill="none" height="24" viewBox="0 0 24 24" width="24" xmlns="http://www.w3.org/2000/svg"><path d="m22.547 6.7085c-.2538-.94234-.9968-1.68534-1.9391-1.93905-1.7216-.45304-8.6079-.45304-8.6079-.45304s-6.88633 0-8.60791.45304c-.94234.25371-1.68534.99671-1.93904 1.93905-.45305 1.72158-.45305 5.2916-.45305 5.2916s0 3.5881.45305 5.2916c.2537.9423.9967 1.6853 1.93904 1.939 1.72158.4531 8.60791.4531 8.60791.4531s6.8863 0 8.6079-.4531c.9423-.2537 1.6853-.9967 1.9391-1.939.453-1.7216.453-5.2916.453-5.2916s0-3.57002-.453-5.2916z" fill="#f00"/><path d="m9.78906 15.3164 5.72654-3.2982-5.72654-3.3163z" fill="#fff"/></svg>